<svg xmlns="http://www.w3.org/2000/svg" width="24" height="24" viewBox="0 0 24 24" fill="none" stroke="currentColor" stroke-width="2" stroke-linecap="round" stroke-linejoin="round" class="lucide lucide-brain-circuit"><path d="M12 5a3 3 0 1 0-5.997.125 4 4 0 0 0-2.526 5.772V15a3 3 0 0 0 6 0v-1.57a4 4 0 0 0 3.518-5.066A3.001 3.001 0 0 0 12 5Z"/><path d="M12 15a2.5 2.5 0 0 0 2.5 2.5h.5a2.5 2.5 0 0 1 2.5 2.5v.5a2.5 2.5 0 0 0 2.5 2.5"/><path d="M12 15a2.5 2.5 0 0 1-2.5-2.5h-.5a2.5 2.5 0 0 0-2.5-2.5v-.5a2.5 2.5 0 0 1-2.5-2.5"/><path d="M12 5a2.5 2.5 0 0 1 2.5 2.5h.5a2.5 2.5 0 0 0 2.5 2.5v.5a2.5 2.5 0 0 1 2.5 2.5"/><path d="M12 5a2.5 2.5 0 0 0-2.5-2.5h-.5a2.5 2.5 0 0 1-2.5-2.5v-.5a2.5 2.5 0 0 0-2.5-2.5"/></svg>
